<?xml version="1.0" encoding="UTF-8" standalone="no"?>
<svg
   xmlns:dc="http://purl.org/dc/elements/1.1/"
   xmlns:cc="http://creativecommons.org/ns#"
   xmlns:rdf="http://www.w3.org/1999/02/22-rdf-syntax-ns#"
   xmlns:svg="http://www.w3.org/2000/svg"
   xmlns="http://www.w3.org/2000/svg"
   viewBox="0 0 471.54666 473.18668"
   height="473.18668"
   width="471.54666"
   xml:space="preserve"
   id="svg2"
   version="1.1"><metadata
     id="metadata8"><rdf:RDF><cc:Work
         rdf:about=""><dc:format>image/svg+xml</dc:format><dc:type
           rdf:resource="http://purl.org/dc/dcmitype/StillImage" /></cc:Work></rdf:RDF></metadata><defs
     id="defs6" /><g
     transform="matrix(1.3333333,0,0,-1.3333333,0,473.18667)"
     id="g10"><g
       transform="scale(0.1)"
       id="g12"><path
         id="path14"
         style="fill:#171717;fill-opacity:1;fill-rule:nonzero;stroke:none"
         d="m 1771.41,1978.05 c -189.92,0 -344.42,-154.47 -344.42,-344.36 0,-189.89 154.5,-344.39 344.42,-344.39 189.86,0 344.39,154.5 344.39,344.39 0,189.89 -154.53,344.36 -344.39,344.36 z m 0,-785.52 c -243.31,0 -441.21,197.88 -441.21,441.16 0,243.25 197.9,441.16 441.21,441.16 243.25,0 441.13,-197.91 441.13,-441.16 0,-243.28 -197.88,-441.16 -441.13,-441.16 z m 0,1131.23 c -482.21,0 -874.535,-392.29 -874.535,-874.48 0,-226.18 86.316,-432.54 227.705,-587.999 156.68,193.019 392.3,305.799 646.83,305.799 179.41,0 354.17,-57.58 496.95,-163.02 84.43,121.89 210.04,213.2 356.55,253.65 13.92,62.65 21.01,127.01 21.01,191.57 0,482.19 -392.3,874.48 -874.51,874.48 z M 1193.93,793.039 c 154.14,-135.801 356.37,-218.32 577.48,-218.32 134.76,0 263.79,29.75 383.71,88.472 3.26,91.77 25.92,178.739 63.99,256.86 -127.68,97.099 -285.52,150.279 -447.7,150.279 -228.2,0 -439.14,-102.432 -577.48,-277.291 z m 1601.13,390.851 c -299.69,0 -543.56,-243.87 -543.56,-543.62 0,-299.692 243.87,-543.5083 543.56,-543.5083 299.7,0 543.52,243.8163 543.52,543.5083 0,299.75 -243.82,543.62 -543.52,543.62 z m 0,-1183.8782812 C 2469.61,0.0117188 2200.07,244.039 2159.88,558.738 2037.42,505.09 1907,477.98 1771.41,477.98 c -535.6,0 -971.328,435.7 -971.328,971.3 0,535.58 435.728,971.28 971.328,971.28 535.55,0 971.25,-435.7 971.25,-971.28 0,-57.81 -5.07,-115.49 -15.16,-172.17 22.19,2.33 44.75,3.52 67.56,3.52 353.03,0 640.26,-287.278 640.26,-640.36 0,-353.032 -287.23,-640.2582812 -640.26,-640.2582812" /><path
         id="path16"
         style="fill:#171717;fill-opacity:1;fill-rule:nonzero;stroke:none"
         d="m 1614.91,3197.11 h 0.52 z m 153.24,-430.66 c 6.78,0 13.6,-1.45 19.97,-4.29 l 222.35,-100.62 -37.82,250.49 c -2.27,15.08 2.69,30.34 13.4,41.2 l 160.01,162.24 -225.35,33.78 c -15.21,2.28 -28.45,11.67 -35.64,25.3 l -116.04,220.41 -110.92,-219.66 c -7.4,-14.61 -21.62,-24.5 -37.92,-26.3 l -220.02,-24.19 166.11,-168.39 c 10.61,-10.74 15.58,-25.79 13.45,-40.69 l -35.28,-252 202.64,97.91 c 6.63,3.21 13.87,4.81 21.06,4.81 z m -284.17,-234.1 c -10.09,0 -20.08,3.16 -28.51,9.29 -14.43,10.53 -21.91,28.15 -19.43,45.81 l 44.57,318.01 -219.53,222.53 c -13.04,13.22 -17.36,32.7 -11.15,50.18 6.21,17.49 21.89,29.88 40.3,31.92 l 293.33,32.26 141.39,280.01 c 8.18,16.16 24.68,26.43 42.79,26.59 18.93,-1.06 34.81,-9.83 43.24,-25.84 l 148.33,-281.77 295.19,-44.26 c 18,-2.69 32.95,-15.26 38.69,-32.54 5.8,-17.28 1.35,-36.32 -11.43,-49.3 l -209.78,-212.73 47.49,-314.54 c 2.64,-17.51 -4.5,-35.1 -18.62,-45.81 -14.23,-10.66 -33.06,-12.78 -49.2,-5.49 l -282.83,127.97 -263.79,-127.47 c -6.67,-3.21 -13.86,-4.82 -21.05,-4.82 z M 367.77,2892.99 h 0.515 z m 153.312,-430.66 c 6.801,0 13.606,-1.45 19.941,-4.32 l 222.329,-100.62 -37.793,250.52 c -2.278,15.08 2.691,30.34 13.398,41.18 l 159.938,162.24 -225.329,33.81 c -15.234,2.27 -28.453,11.69 -35.644,25.32 L 521.961,3090.85 410.965,2871.16 c -7.371,-14.59 -21.649,-24.47 -37.895,-26.28 L 153.047,2820.69 319.164,2652.3 c 10.578,-10.73 15.574,-25.79 13.477,-40.71 l -35.332,-252 202.718,97.93 c 6.649,3.21 13.836,4.81 21.055,4.81 z m 303.391,-234.12 c -6.778,0 -13.578,1.42 -19.942,4.32 l -282.777,127.99 -263.895,-127.5 c -16.113,-7.71 -35.125,-6.02 -49.558,4.48 -14.434,10.53 -21.91,28.14 -19.43,45.83 l 44.598,318.01 -219.5315,222.54 c -13.039062,13.21 -17.35938,32.69 -11.15234,50.17 6.21093,17.49 21.88674,29.88 40.30074,31.93 l 293.3051,32.25 141.492,280.04 c 8.176,16.16 24.68,26.41 42.808,26.56 18.653,-1.11 34.793,-9.85 43.227,-25.87 l 148.242,-281.74 295.17,-44.28 c 18,-2.69 32.95,-15.29 38.72,-32.54 5.74,-17.28 1.32,-36.32 -11.46,-49.28 l -209.703,-212.73 47.441,-314.56 c 2.637,-17.54 -4.5,-35.11 -18.648,-45.81 -8.563,-6.47 -18.832,-9.81 -29.207,-9.81 z M 2855.8,2892.99 h 0.52 z m 153.34,-430.66 c 6.83,0 13.6,-1.45 19.97,-4.32 l 222.24,-100.59 -37.81,250.49 c -2.28,15.08 2.69,30.34 13.4,41.21 l 160.01,162.21 -225.35,33.81 c -15.21,2.27 -28.46,11.69 -35.65,25.32 L 3010.02,3090.85 2899,2871.16 c -7.4,-14.59 -21.63,-24.47 -37.92,-26.28 l -219.98,-24.19 166.12,-168.39 c 10.61,-10.73 15.57,-25.79 13.45,-40.71 l -35.33,-252 202.74,97.93 c 6.68,3.21 13.87,4.81 21.06,4.81 z m 303.36,-234.12 c -6.77,0 -13.55,1.42 -19.96,4.32 l -282.73,127.99 -263.89,-127.5 c -16.09,-7.71 -35.13,-6.02 -49.56,4.48 -14.44,10.53 -21.89,28.14 -19.4,45.83 l 44.54,318.01 -219.51,222.54 c -13.03,13.21 -17.38,32.69 -11.12,50.17 6.21,17.49 21.83,29.88 40.3,31.93 l 293.28,32.25 141.49,280.04 c 8.17,16.16 24.68,26.41 42.78,26.56 18.27,-1.76 34.82,-9.83 43.25,-25.87 l 148.22,-281.74 295.19,-44.28 c 18.01,-2.69 32.96,-15.29 38.7,-32.54 5.79,-17.28 1.35,-36.35 -11.43,-49.3 l -209.78,-212.71 47.49,-314.56 c 2.64,-17.54 -4.5,-35.11 -18.68,-45.81 -8.53,-6.47 -18.83,-9.81 -29.18,-9.81 z M 2694.29,385.379 c -1.35,0 -2.64,0.051 -3.99,0.152 -12.98,1.039 -24.98,7.297 -33.26,17.328 l -209.06,252.313 c -17.07,20.59 -14.22,51.109 6.37,68.129 20.69,17.129 51.11,14.179 68.13,-6.36 l 177.5,-214.23 408.28,354.07 c 20.12,17.379 50.75,15.309 68.29,-4.871 17.48,-20.219 15.31,-50.75 -4.86,-68.281 L 2726,397.172 c -8.85,-7.652 -20.13,-11.793 -31.71,-11.793" /></g></g></svg>