<?xml version="1.0" encoding="UTF-8" standalone="no"?>
<svg
   xmlns:dc="http://purl.org/dc/elements/1.1/"
   xmlns:cc="http://creativecommons.org/ns#"
   xmlns:rdf="http://www.w3.org/1999/02/22-rdf-syntax-ns#"
   xmlns:svg="http://www.w3.org/2000/svg"
   xmlns="http://www.w3.org/2000/svg"
   viewBox="0 0 538.74664 277.35999"
   height="277.35999"
   width="538.74664"
   xml:space="preserve"
   id="svg2"
   version="1.1"><metadata
     id="metadata8"><rdf:RDF><cc:Work
         rdf:about=""><dc:format>image/svg+xml</dc:format><dc:type
           rdf:resource="http://purl.org/dc/dcmitype/StillImage" /></cc:Work></rdf:RDF></metadata><defs
     id="defs6" /><g
     transform="matrix(1.3333333,0,0,-1.3333333,0,277.36)"
     id="g10"><g
       transform="scale(0.1)"
       id="g12"><path
         id="path14"
         style="fill:#171717;fill-opacity:1;fill-rule:nonzero;stroke:none"
         d="M 2020.29,987.488 C 1938.9,850.57 1865.26,703.66 1865.26,657.578 c 0,-74.129 69.56,-134.5 155.03,-134.5 85.48,0 155,60.371 155,134.5 0,46.082 -73.6,192.992 -155,329.91 z m 0,-581.367 c -149.97,0 -271.98,112.82 -271.98,251.457 0,117.793 185.48,414.652 222.66,472.982 l 49.32,77.35 49.33,-77.35 c 37.15,-58.33 222.63,-355.189 222.63,-472.982 0,-138.637 -121.98,-251.457 -271.96,-251.457 z M 1163.54,1565.17 h 514.59 V 1963.3 H 1163.54 Z M 782.598,1448.21 c -367.004,0 -665.606,-298.6 -665.606,-665.632 0,-367.008 298.602,-665.609 665.606,-665.609 H 3257.99 c 367.06,0 665.66,298.601 665.66,665.609 0,367.032 -298.6,665.632 -665.66,665.632 z M 3257.99,0.0117188 H 782.598 C 351.09,0.0117188 0.0351563,351.07 0.0351563,782.578 0.0351563,1214.11 351.09,1565.17 782.598,1565.17 H 1046.58 V 1963.3 H 905.758 c -32.313,0 -58.481,26.17 -58.481,58.48 0,32.31 26.168,58.48 58.481,58.48 H 1938.16 c 32.31,0 58.48,-26.17 58.48,-58.48 0,-32.31 -26.17,-58.48 -58.48,-58.48 h -143.07 v -398.13 h 1462.9 c 431.57,0 782.62,-351.06 782.62,-782.592 0,-431.508 -351.05,-782.5662812 -782.62,-782.5662812" /></g></g></svg>