<?xml version="1.0" encoding="UTF-8" standalone="no"?>
<svg
   xmlns:dc="http://purl.org/dc/elements/1.1/"
   xmlns:cc="http://creativecommons.org/ns#"
   xmlns:rdf="http://www.w3.org/1999/02/22-rdf-syntax-ns#"
   xmlns:svg="http://www.w3.org/2000/svg"
   xmlns="http://www.w3.org/2000/svg"
   viewBox="0 0 337.79999 406.74667"
   height="406.74667"
   width="337.79999"
   xml:space="preserve"
   id="svg2"
   version="1.1"><metadata
     id="metadata8"><rdf:RDF><cc:Work
         rdf:about=""><dc:format>image/svg+xml</dc:format><dc:type
           rdf:resource="http://purl.org/dc/dcmitype/StillImage" /></cc:Work></rdf:RDF></metadata><defs
     id="defs6" /><g
     transform="matrix(1.3333333,0,0,-1.3333333,0,406.74667)"
     id="g10"><g
       transform="scale(0.1)"
       id="g12"><path
         id="path14"
         style="fill:#040606;fill-opacity:1;fill-rule:nonzero;stroke:none"
         d="M 681.816,12.0898 C 673.938,19.5313 665.477,24.2695 658.98,33.6094 596.094,124.512 546.777,249.852 487.902,346.949 c -5.398,8.832 -22.179,40.793 -28.527,42.61 L 69.6445,278.23 c -86.8203,6.571 -55.082,63.981 -34.582,117.68 139.5665,365.43 308.2385,720.95 450.6485,1085.44 -388.6368,530.53 -157,1287.23 464.805,1502.6 C 1670.44,3233.39 2380.09,2587.43 2215.06,1849.48 2131.6,1476.24 1824.89,1181.94 1449.9,1108.1 l 395.71,-930.549 160.51,297.441 c 12.84,21.227 36.69,25.317 59.75,20.137 l 323.34,-93.09 -357.71,868.101 c -18.96,76.02 65.08,99.66 92.95,28.01 116.88,-303.49 257.97,-598.529 373.9,-902.24 20.57,-53.699 52.31,-111.109 -34.58,-117.68 l -389.73,111.329 c -6.35,-1.817 -23.06,-33.778 -28.46,-42.61 -59.45,-97.898 -108.12,-220.609 -171.15,-313.3396 -6.35,-9.4102 -14.96,-14.0078 -22.76,-21.5196 h -35.46 L 1785.57,49.4414 1354.4,1092.27 c -231.42,-11.16 -457.873,42.68 -647.412,176.85 -54.133,38.37 -97.836,87.69 -152.113,125.56 l -410.672,-992.641 323.414,93.09 c 26.629,3.863 43.266,2.703 59.68,-20.137 59.312,-82.293 99.949,-204.711 159.043,-289.781 3.578,-5.109 -0.945,-10.941 13.133,-7.731 l 319.917,782.012 c 24.51,85.578 125.63,58.438 94.04,-29.031 L 747.918,49.4414 717.273,12.0898 Z M 1253.79,2940.98 C 565.965,2930.77 153.031,2153.86 537.586,1578.31 c 345.59,-517.26 1112.434,-517.63 1458.244,0 390.82,584.89 -42.46,1373.03 -742.04,1362.67" /><path
         id="path16"
         style="fill:none;stroke:#ffffff;stroke-width:3.30999994;stroke-linecap:butt;stroke-linejoin:miter;stroke-miterlimit:10;stroke-dasharray:none;stroke-opacity:1"
         d="M 681.816,12.0898 C 673.938,19.5313 665.477,24.2695 658.98,33.6094 596.094,124.512 546.777,249.852 487.902,346.949 c -5.398,8.832 -22.179,40.793 -28.527,42.61 L 69.6445,278.23 c -86.8203,6.571 -55.082,63.981 -34.582,117.68 139.5665,365.43 308.2385,720.95 450.6485,1085.44 -388.6368,530.53 -157,1287.23 464.805,1502.6 C 1670.44,3233.39 2380.09,2587.43 2215.06,1849.48 2131.6,1476.24 1824.89,1181.94 1449.9,1108.1 l 395.71,-930.549 160.51,297.441 c 12.84,21.227 36.69,25.317 59.75,20.137 l 323.34,-93.09 -357.71,868.101 c -18.96,76.02 65.08,99.66 92.95,28.01 116.88,-303.49 257.97,-598.529 373.9,-902.24 20.57,-53.699 52.31,-111.109 -34.58,-117.68 l -389.73,111.329 c -6.35,-1.817 -23.06,-33.778 -28.46,-42.61 -59.45,-97.898 -108.12,-220.609 -171.15,-313.3396 -6.35,-9.4102 -14.96,-14.0078 -22.76,-21.5196 h -35.46 L 1785.57,49.4414 1354.4,1092.27 c -231.42,-11.16 -457.873,42.68 -647.412,176.85 -54.133,38.37 -97.836,87.69 -152.113,125.56 l -410.672,-992.641 323.414,93.09 c 26.629,3.863 43.266,2.703 59.68,-20.137 59.312,-82.293 99.949,-204.711 159.043,-289.781 3.578,-5.109 -0.945,-10.941 13.133,-7.731 l 319.917,782.012 c 24.51,85.578 125.63,58.438 94.04,-29.031 L 747.918,49.4414 717.273,12.0898 Z M 1253.79,2940.98 C 565.965,2930.77 153.031,2153.86 537.586,1578.31 c 345.59,-517.26 1112.434,-517.63 1458.244,0 390.82,584.89 -42.46,1373.03 -742.04,1362.67 z" /><path
         id="path18"
         style="fill:#040606;fill-opacity:1;fill-rule:nonzero;stroke:none"
         d="m 1959.64,2123.02 c -16.42,13.5 -31.23,110.38 -40.06,140.07 -220.54,741.24 -1334.217,583 -1336.99,-197.93 -2.774,-767.2 1091.35,-942.37 1330.86,-221.27 11.31,34.21 25.17,131.61 38.52,150.51 29.33,41.58 90.83,19.77 88.35,-34.66 -10.36,-228.2 -216.24,-483.99 -413.07,-585.98 -622.32,-322.17 -1319.633,274.75 -1099.156,939.67 211.789,638.73 1098.136,717.75 1421.106,127.02 32.32,-59.09 97.69,-221.57 90.39,-285.11 -4.3,-37.36 -53.69,-53.92 -79.95,-32.32" /><path
         id="path20"
         style="fill:none;stroke:#ffffff;stroke-width:3.30999994;stroke-linecap:butt;stroke-linejoin:miter;stroke-miterlimit:10;stroke-dasharray:none;stroke-opacity:1"
         d="m 1959.64,2123.02 c -16.42,13.5 -31.23,110.38 -40.06,140.07 -220.54,741.24 -1334.217,583 -1336.99,-197.93 -2.774,-767.2 1091.35,-942.37 1330.86,-221.27 11.31,34.21 25.17,131.61 38.52,150.51 29.33,41.58 90.83,19.77 88.35,-34.66 -10.36,-228.2 -216.24,-483.99 -413.07,-585.98 -622.32,-322.17 -1319.633,274.75 -1099.156,939.67 211.789,638.73 1098.136,717.75 1421.106,127.02 32.32,-59.09 97.69,-221.57 90.39,-285.11 -4.3,-37.36 -53.69,-53.92 -79.95,-32.32 z" /><path
         id="path22"
         style="fill:#040606;fill-opacity:1;fill-rule:nonzero;stroke:none"
         d="m 1264.67,2651.28 c 20.65,1.17 37.35,-16.27 48.3,-31.74 41.58,-58.95 78.57,-160.14 116.07,-226.6 6.79,-11.96 28.38,-53.55 36.19,-58.44 l 321.59,-56.46 c 26.48,-5.7 46.1,-30.58 40.12,-57.86 l -243.82,-258.12 49.47,-329.03 c -5.11,-41.8 -29.62,-57.27 -70.62,-46.55 l -293.29,143.58 -297.149,-143.58 c -41.07,-10.65 -65.586,4.75 -70.691,46.55 l 49.465,329.03 -243.821,258.12 c -5.691,25.46 11.454,49.17 35.457,56.61 l 326.329,57.71 c 7.74,4.89 29.33,46.48 36.12,58.44 25.38,44.94 106.66,228.5 135.69,248.27 6.86,4.67 16.27,9.63 24.59,10.07 m 7.88,-157.81 c -13.79,2.99 -9.48,-1.82 -13.13,-7.58 -29.62,-45.75 -94.85,-210.12 -126.51,-233.75 -36.18,-27.07 -264.828,-41.96 -273.801,-54.14 24.95,-45.3 175.311,-164.88 186.401,-200.48 14.52,-46.84 -41.44,-272.42 -32.76,-283.87 l 226.09,113.52 h 55.82 l 226.09,-113.52 c 8.61,11.45 -47.35,237.03 -32.76,283.87 11.02,35.6 161.45,155.18 186.4,200.48 -8.97,12.18 -237.69,27.07 -273.88,54.14 -36.47,27.28 -98.92,194.35 -127.96,241.33" /><path
         id="path24"
         style="fill:none;stroke:#ffffff;stroke-width:3.30999994;stroke-linecap:butt;stroke-linejoin:miter;stroke-miterlimit:10;stroke-dasharray:none;stroke-opacity:1"
         d="m 1264.67,2651.28 c 20.65,1.17 37.35,-16.27 48.3,-31.74 41.58,-58.95 78.57,-160.14 116.07,-226.6 6.79,-11.96 28.38,-53.55 36.19,-58.44 l 321.59,-56.46 c 26.48,-5.7 46.1,-30.58 40.12,-57.86 l -243.82,-258.12 49.47,-329.03 c -5.11,-41.8 -29.62,-57.27 -70.62,-46.55 l -293.29,143.58 -297.149,-143.58 c -41.07,-10.65 -65.586,4.75 -70.691,46.55 l 49.465,329.03 -243.821,258.12 c -5.691,25.46 11.454,49.17 35.457,56.61 l 326.329,57.71 c 7.74,4.89 29.33,46.48 36.12,58.44 25.38,44.94 106.66,228.5 135.69,248.27 6.86,4.67 16.27,9.63 24.59,10.07 z m 7.88,-157.81 c -13.79,2.99 -9.48,-1.82 -13.13,-7.58 -29.62,-45.75 -94.85,-210.12 -126.51,-233.75 -36.18,-27.07 -264.828,-41.96 -273.801,-54.14 24.95,-45.3 175.311,-164.88 186.401,-200.48 14.52,-46.84 -41.44,-272.42 -32.76,-283.87 l 226.09,113.52 h 55.82 l 226.09,-113.52 c 8.61,11.45 -47.35,237.03 -32.76,283.87 11.02,35.6 161.45,155.18 186.4,200.48 -8.97,12.18 -237.69,27.07 -273.88,54.14 -36.47,27.28 -98.92,194.35 -127.96,241.33 z" /></g></g></svg>