<?xml version="1.0" encoding="UTF-8" standalone="no"?>
<svg
   xmlns:dc="http://purl.org/dc/elements/1.1/"
   xmlns:cc="http://creativecommons.org/ns#"
   xmlns:rdf="http://www.w3.org/1999/02/22-rdf-syntax-ns#"
   xmlns:svg="http://www.w3.org/2000/svg"
   xmlns="http://www.w3.org/2000/svg"
   viewBox="0 0 390.38666 447.33334"
   height="447.33334"
   width="390.38666"
   xml:space="preserve"
   id="svg2"
   version="1.1"><metadata
     id="metadata8"><rdf:RDF><cc:Work
         rdf:about=""><dc:format>image/svg+xml</dc:format><dc:type
           rdf:resource="http://purl.org/dc/dcmitype/StillImage" /></cc:Work></rdf:RDF></metadata><defs
     id="defs6" /><g
     transform="matrix(1.3333333,0,0,-1.3333333,0,447.33333)"
     id="g10"><g
       transform="scale(0.1)"
       id="g12"><path
         id="path14"
         style="fill:#171717;fill-opacity:1;fill-rule:nonzero;stroke:none"
         d="m 910.828,1895.11 c 112.842,-16.28 336.462,-76.45 368.382,-212.42 21.64,-92.13 -40.94,-161.65 -110.02,-203.68 -237.768,-144.76 -867.819,-149.88 -1091.7252,25.71 -94.9062,74.4 -106.5117,189.13 -12.9765,272.07 41.3867,36.75 154.3477,92.12 207.2227,96.15 81.445,6.17 111.871,-103.12 47.152,-144.03 -39.699,-25.07 -100.027,-30.79 -146.773,-62.38 -39.051,-26.44 -24.664,-32.65 8.863,-51.51 207.106,-116.42 700.86,-112.31 911.507,-5.11 16.72,8.5 33.61,16.4 44.25,33.48 2.18,13.34 -46.35,36.11 -56.82,41.15 -82.738,39.86 -173.617,55.45 -263.12,67.74 -6.125,-0.28 -9.028,-4.95 -12.977,-8.86 -33.73,-33.21 -69.035,-105.95 -102.605,-145.16 -32.602,-38.08 -70.364,-40.91 -109.778,-11.41 -191.062,278.56 -438.785,591.77 -528.9764,929 -186.0666,695.7 639.3984,1137.06 1049.3264,600.51 219.96,-287.86 141.94,-592.37 -7.49,-889.34 z M 638.563,1774.49 c 123.597,169.26 246.957,345.81 341.46,535.83 104.657,210.45 181.507,424.88 55.657,648.99 -178.934,318.61 -621.711,312.69 -793.188,-10.2 -119.328,-224.75 -41.59,-435.15 62.828,-643.26 94.543,-188.37 217.782,-357.71 333.243,-531.36" /><path
         id="path16"
         style="fill:#171717;fill-opacity:1;fill-rule:nonzero;stroke:none"
         d="m 2553.11,524.109 c 89.51,-15.07 188.21,-39.25 266.75,-88.57 155.88,-97.93 136.42,-246.32 -15.27,-333.57 -237.05,-136.3674 -812.01,-137.5003 -1046.11,6.011 -178.05,109.168 -136.34,266.981 33.49,349.879 52.95,25.832 185.74,86.243 202.95,-12.98 22.16,-127.789 -148.71,-95.02 -204.2,-173.117 14.22,-18.953 35.42,-28.981 55.73,-38.731 212.71,-102.402 678.41,-102.203 889.63,4.469 27.64,13.941 63.31,28.129 25.22,55.211 -80.19,57.031 -208.95,72.059 -302.49,88.621 l -123.8,-167.363 c -38.37,-31.559 -76.97,-23.617 -108.53,13.25 -52.27,61.062 -112.03,155.16 -158.58,223.992 -253.77,374.91 -602.64,924.969 -212.54,1341.389 439.39,469.05 1187.16,11.93 1008.87,-651.17 -59.6,-221.809 -193.32,-427.059 -311.12,-617.321 M 2242.24,1822.3 c -136.38,-12.98 -268.04,-98.58 -341.91,-220.56 -138.83,-229.31 -58.07,-453.66 51.51,-671.361 94.06,-186.91 214.6,-358.949 335.25,-526.801 118.85,171.192 240.84,342.793 335.26,531.274 48.44,96.718 103.61,220.078 118.64,329.008 43.37,314.78 -202.71,586.57 -498.75,558.44" /><path
         id="path18"
         style="fill:#171717;fill-opacity:1;fill-rule:nonzero;stroke:none"
         d="m 872.004,1237.52 c 27.766,5.08 43.562,-0.76 66.051,-16.76 202.665,-200.5 438.185,-377.53 638.955,-578.272 30.07,-30.097 56.26,-57.136 39.62,-104.898 C 1599.58,488.75 1546.5,473.148 1506,499.828 L 839.441,1102.23 c -43,40.26 -23.816,124.97 32.563,135.29" /><path
         id="path20"
         style="fill:#171717;fill-opacity:1;fill-rule:nonzero;stroke:none"
         d="M 604.105,3045.97 C 922.273,3080.83 1090.45,2659.69 848,2442.11 668.988,2281.4 387.855,2377.27 330.508,2618.5 c -47.153,198.52 80.117,406.27 273.597,427.47 m 16.684,-156.25 c -224.594,-27.48 -189.652,-398.2 44.492,-368.94 219.676,27.48 185.418,397.08 -44.492,368.94" /><path
         id="path22"
         style="fill:#171717;fill-opacity:1;fill-rule:nonzero;stroke:none"
         d="m 2254.79,1674.95 c 253.97,25.67 433.79,-259.9 315.79,-501.86 -118.76,-243.57 -455.51,-240.551 -571.25,4.4 -101.44,214.63 31.27,474.81 255.46,497.46 m 16.76,-156.32 c -227.93,-19.71 -201.94,-399.5 40.22,-368.87 213.84,27.08 185.58,388.41 -40.22,368.87" /></g></g></svg>