<?xml version="1.0" encoding="UTF-8" standalone="no"?>
<svg
   xmlns:dc="http://purl.org/dc/elements/1.1/"
   xmlns:cc="http://creativecommons.org/ns#"
   xmlns:rdf="http://www.w3.org/1999/02/22-rdf-syntax-ns#"
   xmlns:svg="http://www.w3.org/2000/svg"
   xmlns="http://www.w3.org/2000/svg"
   viewBox="0 0 538.74664 319.86667"
   height="319.86667"
   width="538.74664"
   xml:space="preserve"
   id="svg2"
   version="1.1"><metadata
     id="metadata8"><rdf:RDF><cc:Work
         rdf:about=""><dc:format>image/svg+xml</dc:format><dc:type
           rdf:resource="http://purl.org/dc/dcmitype/StillImage" /></cc:Work></rdf:RDF></metadata><defs
     id="defs6" /><g
     transform="matrix(1.3333333,0,0,-1.3333333,0,319.86667)"
     id="g10"><g
       transform="scale(0.1)"
       id="g12"><path
         id="path14"
         style="fill:#171717;fill-opacity:1;fill-rule:nonzero;stroke:none"
         d="m 436.789,643.641 c -150.527,0 -272.961,-122.442 -272.961,-272.961 0,-150.532 122.434,-272.9691 272.961,-272.9691 150.527,0 272.965,122.4371 272.965,272.9691 0,150.519 -122.438,272.961 -272.965,272.961 z m 0,-643.6214687 C 232.383,0.0195313 66.1328,166.27 66.1328,370.68 c 0,204.402 166.2502,370.652 370.6562,370.652 204.406,0 370.66,-166.25 370.66,-370.652 0,-204.41 -166.254,-370.6604687 -370.66,-370.6604687" /><path
         id="path16"
         style="fill:#171717;fill-opacity:1;fill-rule:nonzero;stroke:none"
         d="m 562.277,370.672 c 0,-69.293 -56.191,-125.481 -125.48,-125.481 -69.34,0 -125.531,56.188 -125.531,125.481 0,69.289 56.191,125.476 125.531,125.476 69.289,0 125.48,-56.187 125.48,-125.476" /><path
         id="path18"
         style="fill:#171717;fill-opacity:1;fill-rule:nonzero;stroke:none"
         d="m 1205.9,370.672 c 0,-69.293 -56.19,-125.481 -125.48,-125.481 -69.34,0 -125.529,56.188 -125.529,125.481 0,69.289 56.189,125.476 125.529,125.476 69.29,0 125.48,-56.187 125.48,-125.476" /><path
         id="path20"
         style="fill:#171717;fill-opacity:1;fill-rule:nonzero;stroke:none"
         d="m 3483.65,370.672 c 0,-69.293 -56.2,-125.481 -125.48,-125.481 -69.35,0 -125.54,56.188 -125.54,125.481 0,69.289 56.19,125.476 125.54,125.476 69.28,0 125.48,-56.187 125.48,-125.476" /><path
         id="path22"
         style="fill:#171717;fill-opacity:1;fill-rule:nonzero;stroke:none"
         d="m 1080.41,643.641 c -150.527,0 -272.961,-122.442 -272.961,-272.961 0,-150.532 122.434,-272.9691 272.961,-272.9691 150.53,0 272.96,122.4371 272.96,272.9691 0,150.519 -122.43,272.961 -272.96,272.961 z m 0,-643.6214687 C 876.004,0.0195313 709.754,166.27 709.754,370.68 c 0,204.402 166.25,370.652 370.656,370.652 204.41,0 370.66,-166.25 370.66,-370.652 0,-204.41 -166.25,-370.6604687 -370.66,-370.6604687 z M 3358.18,643.641 c -150.53,0 -273.01,-122.442 -273.01,-272.961 0,-150.532 122.48,-272.9691 273.01,-272.9691 150.53,0 272.96,122.4371 272.96,272.9691 0,150.519 -122.43,272.961 -272.96,272.961 z m 0,-643.6214687 c -204.41,0 -370.71,166.2504687 -370.71,370.6604687 0,204.402 166.3,370.652 370.71,370.652 204.41,0 370.66,-166.25 370.66,-370.652 0,-204.41 -166.25,-370.6604687 -370.66,-370.6604687" /><path
         id="path24"
         style="fill:#171717;fill-opacity:1;fill-rule:nonzero;stroke:none"
         d="m 1292.68,2133.34 h 261.48 v 74.79 c 0,51.37 -41.82,93.19 -93.19,93.19 h -75.1 c -51.37,0 -93.19,-41.82 -93.19,-93.19 z m 2063.09,-604.41 v -235.54 c 0,-61.59 50.16,-111.74 111.74,-111.74 h 432.87 l -147.64,347.28 z M 2138.34,983.32 h 142.51 c 255.46,0 463.27,207.81 463.27,463.27 v 125.73 c 0,255.46 -207.81,463.32 -463.27,463.32 h -142.51 v -138.2 c 0,-26.99 -21.85,-48.85 -48.84,-48.85 -27,0 -48.85,21.86 -48.85,48.85 v 138.2 H 807.449 v -138.2 c 0,-26.99 -21.855,-48.85 -48.847,-48.85 -26.993,0 -48.848,21.86 -48.848,48.85 v 138.2 H 561.008 c -255.457,0 -463.3244,-207.86 -463.3244,-463.32 v -125.73 c 0,-255.46 207.8674,-463.27 463.3244,-463.27 h 148.746 v 708.29 c 0,27 21.855,48.85 48.848,48.85 26.992,0 48.847,-21.85 48.847,-48.85 V 983.32 H 2040.65 v 708.29 c 0,27 21.85,48.85 48.85,48.85 26.99,0 48.84,-21.85 48.84,-48.85 z M 611.113,741.332 H 2232.74 V 885.621 H 611.113 Z m 3251.057,23.27 c -5.5,0 -9.95,-4.454 -9.95,-9.903 V 670.16 c 0,-5.449 4.45,-9.91 9.95,-9.91 h 80.72 v 104.352 z m 46.65,-442.77 h -230.66 c -27,0 -48.85,21.848 -48.85,48.848 0,26.992 21.85,48.84 48.85,48.84 h 230.66 c 18.76,0 34.07,15.261 34.07,34.019 v 109.02 h -80.72 c -59.38,0 -107.65,48.273 -107.65,107.601 v 84.539 c 0,59.332 48.27,107.602 107.65,107.602 h 80.72 v 195.179 c 0,8.91 -1.05,17.77 -3.04,26.47 h -472.34 c -115.51,0 -209.44,93.92 -209.44,209.44 v 333.24 h 453.16 l -5.66,13.31 c -35.17,82.76 -116.04,136.27 -205.98,136.27 h -325.11 c -49.22,0 -89.31,-40.05 -89.31,-89.26 V 741.332 h 272.96 c 26.99,0 48.85,-21.852 48.85,-48.852 0,-26.992 -21.86,-48.839 -48.85,-48.839 H 48.8359 c -26.9921,0 -48.8476188,21.847 -48.8476188,48.839 0,27 21.8555188,48.852 48.8476188,48.852 H 513.418 V 887.609 C 226.25,911.832 -0.0117188,1153.29 -0.0117188,1446.59 v 125.73 c 0,309.34 251.6837188,561.02 561.0197188,561.02 h 633.972 v 74.79 c 0,105.25 85.64,190.89 190.89,190.89 h 75.1 c 105.25,0 190.89,-85.64 190.89,-190.89 v -74.79 h 628.99 c 309.34,0 560.97,-251.68 560.97,-561.02 v -125.73 c 0,-292.62 -225.16,-533.61 -511.39,-558.82 V 741.332 h 657.04 v 945.618 c 0,103.09 83.86,186.95 187.01,186.95 h 325.11 c 129.25,0 245.39,-76.83 295.92,-195.7 l 34.54,-81.24 c 0,-0.05 0.05,-0.11 0.05,-0.21 l 193.24,-454.57 c 11.48,-27.2 17.24,-55.66 17.24,-84.7 V 453.539 c 0,-72.641 -59.12,-131.707 -131.76,-131.707 z M 1816.54,370.68 v -85.121 c 0,-32.758 26.62,-59.379 59.38,-59.379 h 427.16 c 32.75,0 59.43,26.621 59.43,59.379 v 102.363 c 0,32.758 -26.68,59.379 -59.43,59.379 h -427.16 c -32.76,0 -59.38,-26.621 -59.38,-59.379 z m 486.54,-242.2 h -427.16 c -86.64,0 -157.08,70.442 -157.08,157.079 v 36.273 h -316.57 c -26.99,0 -48.85,21.848 -48.85,48.848 0,26.992 21.86,48.84 48.85,48.84 h 319.77 c 14.67,71.55 78.09,125.48 153.88,125.48 h 427.16 c 76.31,0 140.04,-54.621 154.19,-126.789 3.67,0.891 7.5,1.309 11.43,1.309 h 550.06 c 26.99,0 48.85,-21.848 48.85,-48.84 0,-27 -21.86,-48.848 -48.85,-48.848 H 2468.7 c -2.89,0 -5.72,0.207 -8.49,0.727 v -37 c 0,-86.637 -70.5,-157.079 -157.13,-157.079" /></g></g></svg>