<?xml version="1.0" encoding="UTF-8" standalone="no"?>
<svg
   xmlns:dc="http://purl.org/dc/elements/1.1/"
   xmlns:cc="http://creativecommons.org/ns#"
   xmlns:rdf="http://www.w3.org/1999/02/22-rdf-syntax-ns#"
   xmlns:svg="http://www.w3.org/2000/svg"
   xmlns="http://www.w3.org/2000/svg"
   viewBox="0 0 510.73334 466.26666"
   height="466.26666"
   width="510.73334"
   xml:space="preserve"
   id="svg2"
   version="1.1"><metadata
     id="metadata8"><rdf:RDF><cc:Work
         rdf:about=""><dc:format>image/svg+xml</dc:format><dc:type
           rdf:resource="http://purl.org/dc/dcmitype/StillImage" /></cc:Work></rdf:RDF></metadata><defs
     id="defs6" /><g
     transform="matrix(1.3333333,0,0,-1.3333333,0,466.26667)"
     id="g10"><g
       transform="scale(0.1)"
       id="g12"><path
         id="path14"
         style="fill:#171717;fill-opacity:1;fill-rule:nonzero;stroke:none"
         d="m 1358.79,2837.72 c 0,-364.11 -659.243,-1405.71 -659.243,-1405.71 0,0 -659.297,1041.6 -659.297,1405.71 0,364.11 295.188,659.24 659.297,659.24 364.053,0 659.243,-295.13 659.243,-659.24" /><path
         id="path16"
         style="fill:#ffffff;fill-opacity:1;fill-rule:nonzero;stroke:none"
         d="m 1107.36,2824.62 c 0,-225.26 -182.614,-407.82 -407.813,-407.82 -225.258,0 -407.875,182.56 -407.875,407.82 0,225.26 182.617,407.82 407.875,407.82 225.199,0 407.813,-182.56 407.813,-407.82" /><path
         id="path18"
         style="fill:#171717;fill-opacity:1;fill-rule:nonzero;stroke:none"
         d="m 598.004,0 c -3.309,0 -6.676,0.410156 -9.981,1.24219 C 574.852,4.60938 564.281,14.4102 559.91,27.2305 L 2.19531,1656.72 c -4.66406,13.64 -1.710935,28.7 7.73828,39.57 L 261.355,1984.15 c 14.649,16.72 40.106,18.43 56.817,3.84 16.773,-14.65 18.488,-40.1 3.84,-56.81 L 85.8867,1660.79 616.254,111.332 1264.86,702.289 c 8.27,7.563 19.37,11.34 30.54,10.402 l 887.8,-75.722 665.68,574.961 c 8.27,7.09 19.02,10.57 29.94,9.63 l 855.5,-76.9 L 3249.9,2739.84 2318.16,2911.47 1659.68,2253 c -9.21,-9.22 -22.32,-13.35 -35.2,-11.22 l -334.1,56.58 c -21.92,3.66 -36.68,24.45 -32.96,46.42 3.72,21.91 24.51,36.62 46.36,32.96 l 313.68,-53.1 658.7,658.71 c 9.33,9.39 22.74,13.58 35.74,11.16 l 976.69,-179.96 c 14.82,-2.71 26.87,-13.46 31.24,-27.88 l 508.93,-1675.79 c 3.9,-12.82 1.12,-26.7 -7.33,-37.09 -8.44,-10.4 -21.49,-15.95 -34.84,-14.71 l -897.96,80.74 -665.62,-574.84 c -8.21,-7.148 -19.02,-10.582 -29.77,-9.691 L 1306.09,630.949 625.113,10.5117 C 617.613,3.66016 607.926,0 598.004,0" /><path
         id="path20"
         style="fill:#171717;fill-opacity:1;fill-rule:nonzero;stroke:none"
         d="m 2196.67,555.148 c -16.84,0 -32.55,10.633 -38.16,27.461 L 1593.06,2268.68 c -7.08,21.09 4.26,43.89 25.34,50.97 21.03,7.09 43.94,-4.25 50.97,-25.33 L 2234.88,608.238 c 7.03,-21.078 -4.31,-43.937 -25.4,-50.968 -4.25,-1.411 -8.56,-2.122 -12.81,-2.122" /><path
         id="path22"
         style="fill:#171717;fill-opacity:1;fill-rule:nonzero;stroke:none"
         d="m 271.898,1325.32 c -34.668,17.9 -53.921,28.82 -53.921,28.82 l 19.843,35.03 c 0.176,-0.12 18.957,-10.75 52.567,-28.06 l -18.489,-35.79" /><path
         id="path24"
         style="fill:#171717;fill-opacity:1;fill-rule:nonzero;stroke:none"
         d="m 1323.86,1021.69 h -6.79 l 0.18,40.28 h 6.61 c 38.51,0 76.13,1.89 111.87,5.73 l 4.25,-40.05 c -37.15,-3.95 -76.19,-5.96 -116.12,-5.96 m -129.28,6.38 c -39.16,3.72 -79.97,9.21 -121.31,16.24 l 6.79,39.69 c 40.34,-6.85 80.15,-12.17 118.3,-15.83 z m 367.12,20.85 -9.8,39.09 c 39.04,9.75 76.36,22.45 111.03,37.74 l 16.24,-36.85 c -36.73,-16.18 -76.24,-29.65 -117.47,-39.98 m -608.091,19.55 c -38.449,8.97 -78.078,19.31 -117.945,30.77 l 11.164,38.68 c 39.156,-11.28 78.137,-21.44 115.938,-30.24 z m -234.175,67.09 c -37.504,12.7 -76.071,26.52 -114.461,41.22 l 14.351,37.62 c 37.918,-14.46 75.953,-28.17 112.985,-40.63 z m 1068.296,14.29 -23.03,32.96 c 31.71,22.2 61.36,47.84 88.11,76.19 l 29.3,-27.64 c -28.65,-30.36 -60.42,-57.77 -94.38,-81.51 m -1295.562,72.41 c -37.148,15.77 -74.535,32.42 -111.094,49.55 l 17.008,36.44 c 36.203,-16.89 73.117,-33.37 109.797,-48.9 z m 1466.252,107.31 -33.96,21.68 2.18,3.42 c 12.23,36.45 24.69,72.06 37.03,105.96 l 37.8,-13.76 c -12.46,-34.26 -25.04,-70.34 -37.44,-107.26 -0.48,-1.53 -1.13,-2.95 -2.01,-4.25 z m 86.05,229.4 -37.33,15.06 c 15.65,38.8 31.72,76.42 47.72,111.74 l 36.68,-16.6 c -15.77,-34.84 -31.6,-71.93 -47.07,-110.2 m 99.16,217.87 -35.73,18.55 c 19.37,37.38 39.39,73.17 59.53,106.43 l 34.49,-20.85 c -19.72,-32.49 -39.27,-67.51 -58.29,-104.13 m 123.97,203.29 -32.54,23.68 c 24.8,34.14 50.79,66.27 77.13,95.45 l 29.89,-26.99 c -25.4,-28.18 -50.5,-59.12 -74.48,-92.14 m 158.87,174.58 -26.16,30.6 c 31.48,26.93 64.85,51.62 99.16,73.41 l 21.56,-34.02 c -32.72,-20.73 -64.49,-44.29 -94.56,-69.99 m 198.15,125.69 -16.47,36.73 c 36.2,16.24 75,30.77 115.28,43.12 l 11.81,-38.57 c -38.74,-11.81 -75.95,-25.69 -110.62,-41.28 m 225.73,70.1 -7.91,39.45 c 37.8,7.62 77.25,14 120.6,19.49 l 5.08,-39.92 c -42.4,-5.43 -80.91,-11.64 -117.77,-19.02 m 236.96,31.13 -3.13,40.16 c 36.73,2.89 76.3,5.43 121.07,7.74 l 2.07,-40.22 c -44.36,-2.31 -83.63,-4.79 -120.01,-7.68" /><path
         id="path26"
         style="fill:#171717;fill-opacity:1;fill-rule:nonzero;stroke:none"
         d="m 1974.04,1741.61 1.48,-40.22 60.36,2.07 -1.36,40.22 -60.48,-2.07" /></g></g></svg>