<?xml version="1.0" encoding="UTF-8" standalone="no"?>
<svg
   xmlns:dc="http://purl.org/dc/elements/1.1/"
   xmlns:cc="http://creativecommons.org/ns#"
   xmlns:rdf="http://www.w3.org/1999/02/22-rdf-syntax-ns#"
   xmlns:svg="http://www.w3.org/2000/svg"
   xmlns="http://www.w3.org/2000/svg"
   viewBox="0 0 472.50668 466.26666"
   height="466.26666"
   width="472.50668"
   xml:space="preserve"
   id="svg2"
   version="1.1"><metadata
     id="metadata8"><rdf:RDF><cc:Work
         rdf:about=""><dc:format>image/svg+xml</dc:format><dc:type
           rdf:resource="http://purl.org/dc/dcmitype/StillImage" /></cc:Work></rdf:RDF></metadata><defs
     id="defs6" /><g
     transform="matrix(1.3333333,0,0,-1.3333333,0,466.26667)"
     id="g10"><g
       transform="scale(0.1)"
       id="g12"><path
         id="path14"
         style="fill:#171717;fill-opacity:1;fill-rule:nonzero;stroke:none"
         d="m 925.66,2377.83 c -308.551,0 -559.574,251.03 -559.574,559.57 0,308.55 251.023,559.58 559.574,559.58 308.55,0 559.58,-251.03 559.58,-559.58 0,-308.54 -251.03,-559.57 -559.58,-559.57 m 0,985.16 c -234.687,0 -425.586,-190.9 -425.586,-425.59 0,-234.69 190.899,-425.58 425.586,-425.58 234.69,0 425.58,190.89 425.58,425.58 0,234.69 -190.89,425.59 -425.58,425.59" /><path
         id="path16"
         style="fill:#171717;fill-opacity:1;fill-rule:nonzero;stroke:none"
         d="m 2631.48,2377.83 c -308.55,0 -559.58,251.03 -559.58,559.57 0,308.55 251.03,559.58 559.58,559.58 308.55,0 559.57,-251.03 559.57,-559.58 0,-308.54 -251.02,-559.57 -559.57,-559.57 m 0,985.16 c -234.69,0 -425.59,-190.9 -425.59,-425.59 0,-234.69 190.9,-425.58 425.59,-425.58 234.69,0 425.58,190.89 425.58,425.58 0,234.69 -190.89,425.59 -425.58,425.59" /><path
         id="path18"
         style="fill:#171717;fill-opacity:1;fill-rule:nonzero;stroke:none"
         d="m 3034.83,0 h 100.49 V 1450.08 H 3034.83 V 0" /><path
         id="path20"
         style="fill:#171717;fill-opacity:1;fill-rule:nonzero;stroke:none"
         d="M 352.891,0 H 453.387 V 769.961 H 352.891 V 0" /><path
         id="path22"
         style="fill:#171717;fill-opacity:1;fill-rule:nonzero;stroke:none"
         d="m 1507.74,0 h 100.49 V 577.422 H 1507.74 V 0" /><path
         id="path24"
         style="fill:#171717;fill-opacity:1;fill-rule:nonzero;stroke:none"
         d="m 2088.66,0 h 100.49 V 346.512 H 2088.66 V 0" /><path
         id="path26"
         style="fill:#171717;fill-opacity:1;fill-rule:nonzero;stroke:none"
         d="M 1418.22,719.68 H 275.867 c -152.109,0 -275.8748125,123.769 -275.8748125,275.879 v 746.561 c 0,255.83 208.1248125,463.95 463.9568125,463.95 H 1385 c 183.27,0 332.36,-149.09 332.36,-332.37 v -295.37 h -100.49 v 295.37 c 0,127.82 -103.99,231.81 -231.87,231.81 H 463.949 c -200.367,0 -363.465,-162.96 -363.465,-363.39 V 995.559 c 0,-96.649 78.735,-175.379 175.383,-175.379 H 1418.22 v -100.5" /><path
         id="path28"
         style="fill:#171717;fill-opacity:1;fill-rule:nonzero;stroke:none"
         d="m 1987.91,527.199 h -553.88 c -35.42,0 -67.75,16.34 -88.69,44.891 -20.93,28.492 -26.91,64.191 -16.34,97.961 L 1676.61,1782.4 c 14.42,46.13 56.63,77.22 105.02,77.22 h 707.71 c 35.15,0 68.44,-17.02 89.1,-45.51 20.59,-28.41 26.43,-65.34 15.44,-98.77 l -314.38,-961 -95.55,31.23 314.45,961.07 c 1.24,3.77 -0.07,6.73 -1.37,8.51 -1.31,1.79 -3.64,3.91 -7.69,3.91 h -707.71 c -4.18,0 -7.82,-2.67 -9.06,-6.65 L 1424.9,640.051 c -1.17,-3.77 0.14,-6.66 1.44,-8.442 1.3,-1.789 3.71,-3.918 7.69,-3.918 h 553.88 V 527.199" /><path
         id="path30"
         style="fill:#171717;fill-opacity:1;fill-rule:nonzero;stroke:none"
         d="M 1558.04,1220.13 H 433.121 c -27.801,0 -50.316,22.51 -50.316,50.25 v 538.98 c 0,27.73 22.515,50.24 50.316,50.24 27.731,0 50.246,-22.51 50.246,-50.24 v -488.74 h 963.743 l -185.68,211.76 c -18.26,20.87 -16.2,52.65 4.67,70.91 20.87,18.33 52.65,16.27 70.91,-4.66 l 258.85,-295.1 c 12.97,-14.83 16.13,-35.9 7.96,-53.88 -8.17,-17.99 -26.08,-29.52 -45.78,-29.52" /><path
         id="path32"
         style="fill:#171717;fill-opacity:1;fill-rule:nonzero;stroke:none"
         d="m 2207.92,319.051 c -13.18,0 -26.5,1.847 -39.61,5.629 l -109.41,31.441 c -87.8,25.188 -142.92,112.16 -128.23,202.359 l 29.04,178.399 c 6.72,41.391 29.24,77.5 63.49,101.73 34.32,24.161 75.85,33.289 117.17,25.743 l 167.08,-30.551 c 33.91,-6.25 64.18,-26.36 82.92,-55.262 18.81,-28.957 24.92,-64.73 16.75,-98.219 l -61.16,-252.398 c -9.2,-38.031 -32.95,-69.813 -66.79,-89.512 -22.03,-12.84 -46.47,-19.359 -71.25,-19.359 m -95.55,447.34 c -11.12,0 -21.9,-3.43 -31.17,-9.95 -12.01,-8.511 -19.97,-21.14 -22.3,-35.691 l -29.04,-178.41 c -6.52,-39.949 17.92,-78.449 56.77,-89.641 l 109.48,-31.437 c 11.05,-3.16 22.59,-1.723 32.54,4.047 9.95,5.761 16.89,15.101 19.63,26.293 L 2309.44,704 c 2.27,9.262 -1.17,16.332 -3.36,19.77 -2.2,3.429 -7.35,9.402 -16.68,11.121 L 2122.25,765.5 c -3.29,0.551 -6.59,0.891 -9.88,0.891" /><path
         id="path34"
         style="fill:#171717;fill-opacity:1;fill-rule:nonzero;stroke:none"
         d="m 3165.27,210.68 h -80.24 v 100.492 h 80.24 c 153.28,0 278,124.719 278,278 V 1858.86 c 0,192.61 -156.71,349.32 -349.32,349.32 h -909.72 c -195.15,0 -353.99,-158.77 -353.99,-353.99 v -19.15 h -100.49 v 19.15 c 0,250.61 203.87,454.55 454.48,454.55 h 909.72 c 248.01,0 449.89,-201.81 449.89,-449.88 V 589.172 C 3543.84,380.5 3374.01,210.68 3165.27,210.68" /></g></g></svg>